<svg width="1512" height="322" viewBox="0 0 1512 322" fill="none" xmlns="http://www.w3.org/2000/svg">
<path d="M-1414.35 322L-1315.82 279.192C-1217.3 235.58 -1020.25 151.17 -823.2 86.2544C-626.15 22.5449 -429.1 -21.67 -232.05 11.0892C-35 42.6425 162.05 151.17 359.1 182.723C556.15 215.482 753.2 171.268 950.25 150.567C1147.3 129.062 1344.35 129.062 1442.88 129.062H1541.4V322H1442.88C1344.35 322 1147.3 322 950.25 322C753.2 322 556.15 322 359.1 322C162.05 322 -35 322 -232.05 322C-429.1 322 -626.15 322 -823.2 322C-1020.25 322 -1217.3 322 -1315.82 322H-1414.35Z" fill="url(#paint0_linear_13_9)" fill-opacity="0.64"/>
<defs>
<linearGradient id="paint0_linear_13_9" x1="763.875" y1="161" x2="762.923" y2="322.001" gradientUnits="userSpaceOnUse">
<stop stop-color="#CBE2FF"/>
<stop offset="1" stop-color="#005EFF"/>
</linearGradient>
</defs>
</svg>
